<?xml version="1.0" encoding="UTF-8" standalone="no"?>
<svg
   id="Layer_1"
   data-name="Layer 1"
   viewBox="0 0 1200 630"
   version="1.1"
   sodipodi:docname="socialmedia.svg"
   inkscape:export-filename="socialmedia2.png"
   inkscape:export-xdpi="96"
   inkscape:export-ydpi="96"
   inkscape:version="1.2.2 (b0a8486541, 2022-12-01)"
   width="1200"
   height="630"
   xmlns:inkscape="http://www.inkscape.org/namespaces/inkscape"
   xmlns:sodipodi="http://sodipodi.sourceforge.net/DTD/sodipodi-0.dtd"
   xmlns="http://www.w3.org/2000/svg"
   xmlns:svg="http://www.w3.org/2000/svg">
  <sodipodi:namedview
     id="namedview11"
     pagecolor="#ffffff"
     bordercolor="#666666"
     borderopacity="1.0"
     inkscape:pageshadow="2"
     inkscape:pageopacity="0"
     inkscape:pagecheckerboard="0"
     showgrid="false"
     inkscape:zoom="0.88181155"
     inkscape:cx="360.05425"
     inkscape:cy="462.11688"
     inkscape:window-width="2560"
     inkscape:window-height="1371"
     inkscape:window-x="0"
     inkscape:window-y="32"
     inkscape:window-maximized="1"
     inkscape:current-layer="Layer_1"
     showguides="true"
     inkscape:guide-bbox="true"
     inkscape:showpageshadow="2"
     inkscape:deskcolor="#d1d1d1" />
  <defs
     id="defs4">
    <style
       id="style2">.cls-1{fill:#00101a;}.cls-2{fill:#fff;}</style>
    <clipPath
       clipPathUnits="userSpaceOnUse"
       id="clipPath1799">
      <path
         fill="#000000"
         d="m 27.466234,513.84161 a 22.747425,22.747425 0 1 1 0,9.09897 H -173.1661 v -9.09897 z M 755.38384,732.2169 a 22.747425,22.747425 0 1 1 0,9.09897 H 199.89172 V 732.2169 Z M 1018.344,522.94058 a 22.747425,22.747425 0 1 1 0,-9.09897 h 191.5334 v 9.09897 z m 0,72.79177 a 22.747425,22.747425 0 1 1 0,-9.09897 h 191.5334 v 9.09897 z m 28.2069,-518.641298 a 22.747425,22.747425 0 1 1 0,9.098968 H 654.38527 a 22.747425,22.747425 0 1 1 0,-9.098968 z M -118.11734,-141.28423 a 22.747425,22.747425 0 1 1 0,9.09896 h -55.04876 v -9.09896 z M 727.17703,13.398255 a 22.747425,22.747425 0 1 1 0,-9.098968 h 392.16557 a 22.747425,22.747425 0 1 1 0,9.098968 z M 1000.6011,-450.19427 a 22.747425,22.747425 0 1 1 -9.099,0 v -55.04877 h 9.099 z M 709.43404,496.09862 a 22.747425,22.747425 0 1 1 -9.09898,0 V 249.51653 a 22.747425,22.747425 0 1 1 9.09898,0 z m 218.37528,-901.70793 v 264.32508 h 282.06808 v 9.09896 H 918.71035 v -273.42404 a 22.747425,22.747425 0 1 1 9.09897,0 z m 72.79178,72.79175 V -214.076 h 209.2763 v 9.09897 H 991.5021 v -127.84053 a 22.747425,22.747425 0 1 1 9.099,0 z M 418.26699,103.93301 v 337.11685 h 72.79177 v 55.04876 a 22.747425,22.747425 0 1 1 -9.09897,0 V 450.14883 H 409.16802 V 103.93301 a 22.747425,22.747425 0 1 1 9.09897,0 z M 391.42503,4.299287 a 22.747425,22.747425 0 1 1 0,9.098968 H 345.47524 V 231.77354 H 217.63471 a 22.747425,22.747425 0 1 1 0,-9.09897 H 336.37626 V 4.299287 Z m -28.2068,591.433063 a 22.747425,22.747425 0 1 1 0,-9.09897 H 627.54331 V 249.51653 a 22.747425,22.747425 0 1 1 9.09897,0 V 595.73235 Z M 290.42646,304.56531 a 22.747425,22.747425 0 1 1 0,-9.09898 h 55.04878 v 218.37528 h 45.94979 a 22.747425,22.747425 0 1 1 0,9.09897 H 336.37626 V 304.56531 Z m -163.3265,482.70036 a 22.747425,22.747425 0 1 1 -9.09897,0 v -45.9498 H 54.308195 V 877.80042 H 45.209227 V 732.2169 h 81.890733 z m 773.8674,-491.79934 a 22.747425,22.747425 0 1 1 0,9.09898 h -45.9498 V 732.2169 h 218.37534 v 145.58352 h -9.099 V 741.31587 H 845.91859 V 295.46633 Z M 1018.344,158.98178 a 22.747425,22.747425 0 1 1 0,-9.09897 h 55.0489 V 350.5151 a 22.747425,22.747425 0 1 1 -9.099,0 V 158.98178 Z M 727.17703,595.73235 a 22.747425,22.747425 0 1 1 0,-9.09897 h 45.9498 V 222.67457 h 72.79176 V 158.98178 H 654.38527 a 22.747425,22.747425 0 1 1 0,-9.09897 h 200.63229 v 81.89073 H 782.2258 v 363.95881 z m 392.16557,-955.39187 a 22.747425,22.747425 0 1 1 0,9.09897 h -55.0487 v -154.68249 h 9.099 v 145.58352 z M 272.68347,-41.650512 V 158.98178 H 72.051188 a 22.747425,22.747425 0 1 1 0,-9.09897 H 263.58451 V -41.650512 a 22.747425,22.747425 0 1 1 9.09896,0 z M 72.051188,-350.56055 a 22.747425,22.747425 0 1 1 0,-9.09897 H 190.79275 v -145.58352 h 9.09897 v 154.68249 z m 273.424052,17.74299 v 127.84053 H 199.89172 V 86.19002 h -55.04877 a 22.747425,22.747425 0 1 1 0,-9.098968 h 45.9498 V -214.076 h 145.58351 v -118.74156 a 22.747425,22.747425 0 1 1 9.09898,0 z m -55.04878,200.63229 a 22.747425,22.747425 0 1 1 0,-9.09896 h 118.74156 v -191.53333 a 22.747425,22.747425 0 1 1 9.09897,0 v 200.63229 z m 72.79177,-291.16704 a 22.747425,22.747425 0 1 1 0,-9.09897 h 127.84053 v 200.63229 a 22.747425,22.747425 0 1 1 -9.09897,0 V -423.35231 Z M 828.1756,805.00866 a 22.747425,22.747425 0 1 1 0,9.09897 H 272.68347 v 63.69279 h -9.09896 v -72.79176 z m 99.63372,-628.28389 v 45.9498 h 72.79178 v 154.68249 h -72.79178 v 282.06807 h 218.37528 v 218.37529 h -9.099 V 668.52411 H 918.71035 V 368.25809 H 991.5021 V 231.77354 h -72.79175 v -55.04877 a 22.747425,22.747425 0 1 1 9.09897,0 z M 72.051188,-423.35231 a 22.747425,22.747425 0 1 1 0,-9.09897 h 45.949802 v -63.69279 H 45.209227 v -9.09897 h 81.890733 v 81.89073 z M 581.5935,-277.76879 a 22.747425,22.747425 0 1 1 0,-9.09896 h 118.74156 v -218.37529 h 227.47426 v 9.09897 H 709.43404 v 218.37528 z M 363.21823,-496.14407 a 22.751977,22.751977 0 0 1 -44.58496,-9.09897 h 9.41743 a 13.648455,13.648455 0 1 0 25.75009,0 h 282.84149 v 154.68249 h -81.89074 v -55.04876 a 22.747425,22.747425 0 1 1 9.09897,0 v 45.94979 h 63.6928 v -136.48455 z m 0,436.75057 a 22.747425,22.747425 0 1 1 0,-9.09897 h 86.89516 L 595.69691,-214.076 h 177.42992 v -191.53331 a 22.747425,22.747425 0 1 1 9.09897,0 v 200.63228 H 599.47298 L 453.88946,-59.3935 Z m 127.84053,409.9086 a 22.747425,22.747425 0 1 1 -9.09897,0 V 2.434002 L 625.67801,-141.28423 h 220.24058 v -264.32508 a 22.747425,22.747425 0 1 1 9.09897,0 v 273.42404 H 629.40859 L 491.05876,6.164572 Z m 72.79175,145.58352 a 22.747425,22.747425 0 1 1 -9.09897,0 V 43.379369 L 666.62338,-68.49247 h 525.51112 a 22.747425,22.747425 0 0 1 17.7429,-17.743 v 9.41744 a 13.648455,13.648455 0 0 0 0,25.750084 v 9.417434 A 22.747425,22.747425 0 0 1 1192.1344,-59.3935 H 670.35396 L 563.85051,47.109939 Z M -91.275366,204.93158 a 22.747425,22.747425 0 1 1 -9.098974,0 V 188.96289 L 118.00099,-29.412396 V -286.86775 h 145.58352 v -218.37529 h 9.09896 v 227.47425 H 127.09996 V -25.681816 L -91.275366,192.69346 Z M 54.308195,-260.02579 V -62.0777 L -164.06713,156.29759 v 284.75227 h 118.741599 a 22.747425,22.747425 0 1 1 0,9.09897 H -173.1661 V 152.56701 L 45.209227,-65.80828 v -194.21751 a 22.747425,22.747425 0 1 1 9.098968,0 z m -72.791755,72.79175 v 88.76046 L -173.1661,56.208917 V 43.379369 L -27.582538,-102.20416 v -85.02988 a 22.747425,22.747425 0 1 1 9.098978,0 z m -99.63378,-172.42548 a 22.747425,22.747425 0 1 1 0,9.09897 h -12.23811 l -42.81065,42.81066 v -12.78406 l 39.08007,-39.12557 z m 1209.25324,81.89073 a 22.747425,22.747425 0 1 1 0,-9.09896 h 85.0298 l 33.7117,-33.71169 v 12.82955 l -29.9811,29.9811 z m -72.7919,727.91762 a 22.747425,22.747425 0 1 1 0,-9.09897 h 118.7416 V 116.17112 l 72.7918,-72.791751 V 56.208917 L 1146.1846,119.9017 V 450.14883 Z M 72.051188,595.73235 a 22.747425,22.747425 0 1 1 0,-9.09897 H 118.00099 V 483.86051 L 11.497544,377.35706 h -85.029876 a 22.747425,22.747425 0 1 1 0,-9.09897 H 15.228124 L 127.09996,480.12993 v 115.60242 z m 683.332652,63.69278 a 22.747425,22.747425 0 1 1 0,9.09898 H 263.58451 V 411.02325 L 84.3348,231.77354 H -0.740577 a 22.747425,22.747425 0 1 1 0,-9.09897 H 87.97439 l 184.70908,184.7091 v 252.04146 z m -683.332652,9.09898 a 22.747425,22.747425 0 1 1 0,-9.09898 H 190.79275 V 447.46463 L 47.893426,304.56531 H -73.532332 a 22.747425,22.747425 0 1 1 0,-9.09898 H 51.623996 L 199.89172,443.73405 V 668.52411 Z M -18.48356,-324.17353 v 7.32466 l -111.87189,111.87184 h -42.81065 v -9.09897 h 39.08007 l 106.503492,-106.50344 v -184.6636 h 9.098978 z M -164.06713,860.05743 a 22.747425,22.747425 0 0 1 17.74299,17.74299 h -9.41744 a 13.648455,13.648455 0 0 0 -17.42452,-8.32556 V 659.42513 h 81.890734 v 218.37529 h -9.098974 V 668.52411 h -63.69279 z M -18.48356,591.18286 v 286.61756 h -9.098978 V 595.73235 H -173.1661 v -9.09897 h 154.68254 z m -77.3413,-1014.53517 h -77.34124 v -9.09897 h 72.79176 v -72.79176 h 9.098974 v 81.89073 z m 1242.00946,-9.09897 h 63.6928 v 9.09897 h -72.7918 v -81.89073 h 9.099 z M 1000.6011,809.55815 v 68.24227 h -9.099 v -63.69279 h -63.69278 v 63.69279 h -9.09897 v -72.79176 h 81.89075 z M -173.1661,-86.23547 a 22.838415,22.838415 0 0 1 27.2969,22.29248 22.747425,22.747425 0 0 1 -27.2969,22.292478 v -9.417434 a 13.648455,13.648455 0 1 0 0,-25.750084 z M 190.79275,732.2169 h 9.09897 v 145.58352 h -9.09897 z m 172.42548,145.58352 h -9.41744 a 13.648455,13.648455 0 0 0 -25.75009,0 h -9.41743 a 22.747425,22.747425 0 0 1 44.58496,0 z M -146.32414,-505.24304 a 22.838415,22.838415 0 0 1 -26.84196,26.84196 v -9.41744 a 13.648455,13.648455 0 0 0 17.42452,-17.42452 z m 1338.45854,0 h 9.4175 a 13.648455,13.648455 0 0 0 8.3255,17.42452 v 9.41744 a 22.747425,22.747425 0 0 1 -17.743,-26.84196 z m 17.743,1365.30047 v 9.41743 a 13.648455,13.648455 0 0 0 -8.3255,8.32556 h -9.4175 a 22.747425,22.747425 0 0 1 17.743,-17.74299 z M 268.134,-50.294534 a 13.648455,13.648455 0 1 0 0,-27.296906 13.648455,13.648455 0 0 0 0,27.296906 z m 0,-72.791766 a 13.648455,13.648455 0 1 0 0,-27.2969 13.648455,13.648455 0 0 0 0,27.2969 z m 72.79174,72.791766 a 13.648455,13.648455 0 1 0 0,-27.296906 13.648455,13.648455 0 0 0 0,27.296906 z m 72.79177,72.791757 a 13.648455,13.648455 0 1 0 0,-27.296904 13.648455,13.648455 0 0 0 0,27.296904 z m 0,72.791767 a 13.648458,13.648458 0 1 0 0,-27.296916 13.648458,13.648458 0 0 0 0,27.296916 z M 195.34223,240.87251 a 13.648455,13.648455 0 1 0 0,-27.29691 13.648455,13.648455 0 0 0 0,27.29691 z m 72.79177,72.79176 a 13.648457,13.648457 0 1 0 0,-27.29691 13.648457,13.648457 0 0 0 0,27.29691 z m 145.58351,218.37529 a 13.648457,13.648457 0 1 0 0,-27.29691 13.648457,13.648457 0 0 0 0,27.29691 z m -72.79177,72.79175 a 13.648455,13.648455 0 1 0 0,-27.2969 13.648455,13.648455 0 0 0 0,27.2969 z m 145.58353,-72.79175 a 13.648457,13.648457 0 1 0 0,-27.29691 13.648457,13.648457 0 0 0 0,27.29691 z m 0,-145.58353 a 13.648455,13.648455 0 1 0 0,-27.29691 13.648455,13.648455 0 0 0 0,27.29691 z m 72.79176,145.58353 a 13.648457,13.648457 0 1 0 0,-27.29691 13.648457,13.648457 0 0 0 0,27.29691 z m 145.58353,72.79175 a 13.648455,13.648455 0 1 0 0,-27.2969 13.648455,13.648455 0 0 0 0,27.2969 z m 0,-72.79175 a 13.648457,13.648457 0 1 0 0,-27.29691 13.648457,13.648457 0 0 0 0,27.29691 z M 632.09279,240.87251 a 13.648455,13.648455 0 1 0 0,-27.29691 13.648455,13.648455 0 0 0 0,27.29691 z m 72.79177,0 a 13.648455,13.648455 0 1 0 0,-27.29691 13.648455,13.648455 0 0 0 0,27.29691 z m 72.79175,436.75057 a 13.648457,13.648457 0 1 0 0,-27.29691 13.648457,13.648457 0 0 0 0,27.29691 z m 0,72.79176 a 13.648455,13.648455 0 1 0 0,-27.29691 13.648455,13.648455 0 0 0 0,27.29691 z m 72.79177,72.79176 a 13.648457,13.648457 0 1 0 0,-27.29691 13.648457,13.648457 0 0 0 0,27.29691 z m 72.79175,-655.12585 a 13.648457,13.648457 0 1 0 0,-27.29691 13.648457,13.648457 0 0 0 0,27.29691 z m 0,145.58352 a 13.648457,13.648457 0 1 0 0,-27.29691 13.648457,13.648457 0 0 0 0,27.29691 z M 996.0516,168.08075 a 13.648457,13.648457 0 1 0 0,-27.29691 13.648457,13.648457 0 0 0 0,27.29691 z m 72.7917,-72.79176 a 13.648458,13.648458 0 1 0 0,-27.296916 13.648458,13.648458 0 0 0 0,27.296916 z m -436.75051,0 a 13.648458,13.648458 0 1 0 0,-27.296916 13.648458,13.648458 0 0 0 0,27.296916 z m 0,72.79176 a 13.648457,13.648457 0 1 0 0,-27.29691 13.648457,13.648457 0 0 0 0,27.29691 z M 704.88456,22.497223 a 13.648455,13.648455 0 1 0 0,-27.296904 13.648455,13.648455 0 0 0 0,27.296904 z m 436.75064,0 a 13.648455,13.648455 0 1 0 0,-27.296904 13.648455,13.648455 0 0 0 0,27.296904 z m -72.7919,-291.167043 a 13.648457,13.648457 0 1 0 0,-27.29691 13.648457,13.648457 0 0 0 0,27.29691 z m 72.7919,-72.79176 a 13.648455,13.648455 0 1 0 0,-27.29691 13.648455,13.648455 0 0 0 0,27.29691 z m -145.5836,0 a 13.648455,13.648455 0 1 0 0,-27.29691 13.648455,13.648455 0 0 0 0,27.29691 z m 0,-72.79176 a 13.648457,13.648457 0 1 0 0,-27.29691 13.648457,13.648457 0 0 0 0,27.29691 z m -72.79177,0 a 13.648457,13.648457 0 1 0 0,-27.29691 13.648457,13.648457 0 0 0 0,27.29691 z m -72.79175,0 a 13.648457,13.648457 0 1 0 0,-27.29691 13.648457,13.648457 0 0 0 0,27.29691 z m -72.79177,0 a 13.648457,13.648457 0 1 0 0,-27.29691 13.648457,13.648457 0 0 0 0,27.29691 z m -727.917599,72.79176 a 13.648455,13.648455 0 1 0 0,-27.29691 13.648455,13.648455 0 0 0 0,27.29691 z m -145.583571,0 a 13.648455,13.648455 0 1 0 0,-27.29691 13.648455,13.648455 0 0 0 0,27.29691 z m 145.583571,72.79176 a 13.648457,13.648457 0 1 0 0,-27.29691 13.648457,13.648457 0 0 0 0,27.29691 z m -72.791765,72.79177 a 13.64846,13.64846 0 1 0 0,-27.29692 13.64846,13.64846 0 0 0 0,27.29692 z m 72.791765,-218.37529 a 13.648457,13.648457 0 1 0 0,-27.29691 13.648457,13.648457 0 0 0 0,27.29691 z m 0,1091.87642 a 13.648457,13.648457 0 1 0 0,-27.29691 13.648457,13.648457 0 0 0 0,27.29691 z M 122.55048,823.2066 a 13.648457,13.648457 0 1 0 0,-27.29691 13.648457,13.648457 0 0 0 0,27.29691 z M 49.758711,532.03956 a 13.648457,13.648457 0 1 0 0,-27.29691 13.648457,13.648457 0 0 0 0,27.29691 z m 0,72.79175 a 13.648455,13.648455 0 1 0 0,-27.2969 13.648455,13.648455 0 0 0 0,27.2969 z M -23.033054,459.24779 a 13.648457,13.648457 0 1 0 0,-27.29691 13.648457,13.648457 0 0 0 0,27.29691 z M 340.92575,-341.46158 a 13.648455,13.648455 0 1 0 0,-27.29691 13.648455,13.648455 0 0 0 0,27.29691 z m 72.79176,0 a 13.648455,13.648455 0 1 0 0,-27.29691 13.648455,13.648455 0 0 0 0,27.29691 z m -72.79176,-72.79176 a 13.648457,13.648457 0 1 0 0,-27.29691 13.648457,13.648457 0 0 0 0,27.29691 z m 145.58352,218.37529 a 13.64846,13.64846 0 1 0 0,-27.29692 13.64846,13.64846 0 0 0 0,27.29692 z m 72.79176,-72.79177 a 13.648457,13.648457 0 1 0 0,-27.29691 13.648457,13.648457 0 0 0 0,27.29691 z m 0,-145.58352 a 13.648457,13.648457 0 1 0 0,-27.29691 13.648457,13.648457 0 0 0 0,27.29691 z m 509.54227,800.70937 a 13.648455,13.648455 0 1 0 0,-27.29691 13.648455,13.648455 0 0 0 0,27.29691 z m -72.7917,72.79176 a 13.648457,13.648457 0 1 0 0,-27.29691 13.648457,13.648457 0 0 0 0,27.29691 z m 0,72.79177 a 13.648457,13.648457 0 1 0 0,-27.29691 13.648457,13.648457 0 0 0 0,27.29691 z m 0,72.79175 a 13.648455,13.648455 0 1 0 0,-27.2969 13.648455,13.648455 0 0 0 0,27.2969 z M -95.82486,313.66427 a 13.648457,13.648457 0 1 0 0,-27.29691 13.648457,13.648457 0 0 0 0,27.29691 z m 0,72.79176 a 13.648455,13.648455 0 1 0 0,-27.29691 13.648455,13.648455 0 0 0 0,27.29691 z m 0,-145.58352 a 13.648455,13.648455 0 1 0 0,-27.29691 13.648455,13.648455 0 0 0 0,27.29691 z m 72.791806,0 a 13.648455,13.648455 0 1 0 0,-27.29691 13.648455,13.648455 0 0 0 0,27.29691 z M -95.82486,-123.0863 a 13.648455,13.648455 0 1 0 0,-27.2969 13.648455,13.648455 0 0 0 0,27.2969 z M 49.758711,168.08075 a 13.648457,13.648457 0 1 0 0,-27.29691 13.648457,13.648457 0 0 0 0,27.29691 z M 122.55048,95.28899 a 13.648458,13.648458 0 1 0 0,-27.296916 13.648458,13.648458 0 0 0 0,27.296916 z"
         id="path1801"
         style="stroke-width:4.54948" />
    </clipPath>
    <clipPath
       clipPathUnits="userSpaceOnUse"
       id="clipPath3096">
      <path
         id="path3098"
         clip-path="url(#clipPath1799)"
         style="fill:#000080;fill-opacity:1;stroke-width:39.8966;stroke-linecap:round;stroke-linejoin:round"
         d="m 947.51562,476.03906 v 72.33399 H 1200 v -72.33399 z"
         transform="translate(40,38)" />
    </clipPath>
    <clipPath
       clipPathUnits="userSpaceOnUse"
       id="clipPath11455">
      <g
         id="g11465">
        <rect
           style="fill:#00003a;fill-opacity:0.300105;stroke-width:39.8966;stroke-linecap:round;stroke-linejoin:round"
           id="rect11457"
           width="1200"
           height="630"
           x="0"
           y="0"
           inkscape:export-filename="/home/rknet/rkau2905/Bilder/the Geeklab/new/rect889.png"
           inkscape:export-xdpi="96"
           inkscape:export-ydpi="96"
           clip-path="url(#clipPath3096)"
           transform="translate(0,24)" />
        <path
           id="path11459"
           clip-path="url(#clipPath1799)"
           style="fill:#00003a;fill-opacity:0.300105;stroke-width:39.8966;stroke-linecap:round;stroke-linejoin:round"
           d="M 947.51562,476.03906 H 1200 V 34.957031 h -89.5293 V 411.45508 H 947.51562 Z"
           transform="translate(0,62)" />
        <path
           id="path11461"
           clip-path="url(#clipPath1799)"
           style="fill:#00003a;fill-opacity:0.300105;stroke-width:39.8966;stroke-linecap:round;stroke-linejoin:round"
           d="M 0,358.01758 V 630 H 157.23242 V 472.87305 a 134.15305,103.63811 0 0 1 -15.55078,-6.5586 134.15305,103.63811 0 0 1 -15.32422,-8.86133 134.15305,103.63811 0 0 1 -13.5332,-10.45507 134.15305,103.63811 0 0 1 -11.4707,-11.83789 134.15305,103.63811 0 0 1 -9.173832,-12.97852 134.15305,103.63811 0 0 1 -6.689454,-13.85547 134.15305,103.63811 0 0 1 -4.068359,-14.44726 134.15305,103.63811 0 0 1 -1.365234,-14.75 134.15305,103.63811 0 0 1 1.365234,-14.75 134.15305,103.63811 0 0 1 1.791016,-6.36133 z"
           transform="translate(0,4)" />
        <path
           id="path11463"
           clip-path="url(#clipPath1799)"
           style="fill:#00003a;fill-opacity:0.300105;stroke-width:39.8966;stroke-linecap:round;stroke-linejoin:round"
           d="m 131.76172,0 a 239.71994,233.9122 0 0 1 -0.0664,0.171875 239.71994,233.9122 0 0 1 -16.39062,29.291016 239.71994,233.9122 0 0 1 -20.498049,26.71875 239.71994,233.9122 0 0 1 -24.185547,23.599609 239.71994,233.9122 0 0 1 -27.38086,20 A 239.71994,233.9122 0 0 1 13.222656,115.77539 239.71994,233.9122 0 0 1 0,120.58789 v 65.22656 H 304.62109 V 0 Z"
           transform="translate(35.04877,-42)" />
      </g>
    </clipPath>
  </defs>
  <rect
     style="fill:#205375;fill-opacity:1;stroke-width:39.8966;stroke-linecap:round;stroke-linejoin:round"
     id="rect889"
     width="1200"
     height="630"
     x="0"
     y="0"
     inkscape:export-filename="/home/rknet/rkau2905/Bilder/the Geeklab/new/rect889.png"
     inkscape:export-xdpi="96"
     inkscape:export-ydpi="96" />
  <g
     id="g1907"
     transform="translate(8.2114161,-60)">
    <g
       id="g953"
       transform="translate(-2.657529)">
      <g
         id="g16237"
         transform="matrix(0.87844786,0,0,0.87844786,15.290692,29.917914)">
        <text
           xml:space="preserve"
           style="font-size:61.3333px;line-height:1.25;font-family:sans-serif;fill:#ffffff;fill-opacity:0.59965"
           x="228.21407"
           y="383.40546"
           id="text21171"><tspan
             sodipodi:role="line"
             id="tspan21169"
             x="228.21407"
             y="383.40546"
             style="font-style:normal;font-variant:normal;font-weight:normal;font-stretch:normal;font-size:61.3333px;font-family:Metropolis;-inkscape-font-specification:Metropolis;fill:#ffffff;fill-opacity:0.59965">hugo-geekdoc</tspan></text>
        <text
           xml:space="preserve"
           style="font-size:72px;line-height:1.25;font-family:sans-serif"
           x="225.17407"
           y="305.43185"
           id="text21171-6"><tspan
             sodipodi:role="line"
             id="tspan21169-2"
             x="225.17407"
             y="305.43185"
             style="font-style:normal;font-variant:normal;font-weight:normal;font-stretch:normal;font-size:72px;font-family:Metropolis;-inkscape-font-specification:Metropolis;fill:#ffffff">DOCUMENTATION</tspan></text>
      </g>
    </g>
    <g
       id="g1507"
       transform="matrix(6.9102661,0,0,6.9102661,832.58614,242.96052)">
      <path
         id="secondary-3"
         d="M 18.244015,6.33001 16.574991,4.6609857 a 1.1921603,1.1921603 0 0 0 -1.669024,0 L 9.05246,10.514493 v 3.338048 h 3.338049 l 5.853506,-5.8535067 a 1.1921603,1.1921603 0 0 0 0,-1.6690243 z"
         style="fill:none;stroke:#f66b0e;stroke-width:1.8;stroke-linecap:round;stroke-linejoin:round;stroke-dasharray:none;stroke-opacity:1" />
      <path
         id="primary-6"
         d="m 14.897123,16.029614 v 1.868208 a 0.88539335,0.93410346 0 0 1 -0.885392,0.934103 H 3.3870098 A 0.88539335,0.93410346 0 0 1 2.5016166,17.897822 V 2.952165 A 0.88539335,0.93410346 0 0 1 3.3870098,2.0180616 h 8.8539322"
         style="fill:none;stroke:#efefef;stroke-width:2.37391;stroke-linecap:round;stroke-linejoin:round;stroke-dasharray:none;stroke-opacity:1" />
      <path
         id="primary-2-7"
         data-name="primary"
         d="m 1.5,6.4249937 h 2 m -2,3.9999993 h 2 m -2,4 h 2"
         style="fill:none;stroke:#efefef;stroke-width:2.4;stroke-linecap:round;stroke-linejoin:round;stroke-dasharray:none;stroke-opacity:1" />
    </g>
  </g>
</svg>
