<!-- Generated by IcoMoon.io -->
<svg version="1.1" xmlns="http://www.w3.org/2000/svg" width="32" height="32" viewBox="0 0 28 28">
<title>fire</title>
<path d="M17.689 21.998q-0.32 0.32-0.8 0.576t-0.864 0.384q-1.152 0.384-2.272 0.032t-1.888-0.992q-0.128-0.128-0.096-0.256t0.16-0.192q1.216-0.384 1.92-1.216t0.96-1.792q0.192-0.896-0.064-1.728t-0.384-1.728q-0.128-0.704-0.096-1.376t0.288-1.312q0-0.128 0.128-0.128t0.192 0.064q0.384 0.832 0.992 1.472t1.28 1.216 1.216 1.248 0.672 1.568q0.064 0.384 0.064 0.704 0.064 0.96-0.32 1.92t-1.088 1.536zM21.529 11.054q-0.768-0.704-1.6-1.28t-1.6-1.344q-1.536-1.536-2.016-3.584t0.16-4.16q0.128-0.32-0.096-0.544t-0.544-0.096q-0.768 0.32-1.44 0.768t-1.312 0.896q-1.984 1.664-3.136 3.936t-1.312 4.864 0.8 5.088q0 0.128 0.032 0.256t0.032 0.256q0 0.576-0.512 0.832t-1.024-0.192q-0.128-0.192-0.192-0.32-1.024-1.28-1.376-2.912t-0.096-3.232q0.064-0.384-0.288-0.576t-0.608 0.128q-1.28 1.664-1.856 3.68t-0.448 4.064q0 0.576 0.096 1.184t0.288 1.184q0.448 1.536 1.216 2.816 1.216 2.048 3.264 3.424t4.416 1.696q2.496 0.32 5.024-0.256t4.448-2.304q1.408-1.344 2.208-3.104t0.864-3.68-0.704-3.712q-0.064-0.128-0.096-0.224t-0.096-0.224q-0.576-1.088-1.28-1.984-0.256-0.384-0.544-0.704t-0.672-0.64z"></path>
</svg>
