<!-- Generated by IcoMoon.io -->
<svg version="1.1" xmlns="http://www.w3.org/2000/svg" width="32" height="32" viewBox="0 0 32 32">
<title>gitea</title>
<path d="M5.581 7.229c-2.46-0.005-5.755 1.559-5.573 5.48 0.284 6.125 6.56 6.693 9.068 6.743 0.275 1.149 3.227 5.112 5.412 5.32h9.573c5.741-0.381 10.040-17.363 6.853-17.427-5.271 0.248-8.395 0.373-11.073 0.395v5.3l-0.835-0.369-0.005-4.928c-3.075-0.001-5.781-0.144-10.919-0.397-0.643-0.004-1.539-0.113-2.501-0.116zM5.929 9.395h0.293c0.349 3.14 0.917 4.976 2.067 7.781-2.933-0.347-5.429-1.199-5.888-4.38-0.237-1.647 0.563-3.365 3.528-3.401zM17.338 12.482c0.2 0.003 0.404 0.040 0.596 0.128l0.999 0.431-0.716 1.305c-0.002 0-0.004-0-0.007-0-0.113 0-0.221 0.019-0.321 0.053l0.006-0.002c-0.349 0.114-0.593 0.406-0.593 0.749 0 0.097 0.019 0.189 0.055 0.275l-0.002-0.006c0.037 0.089 0.088 0.166 0.151 0.233l-0.001-0.001-1.235 2.248c-0.107 0.002-0.208 0.020-0.302 0.052l0.006-0.002c-0.349 0.114-0.593 0.406-0.593 0.749 0 0.097 0.019 0.189 0.055 0.275l-0.002-0.006c0.128 0.31 0.457 0.527 0.843 0.527 0.109 0 0.213-0.017 0.31-0.049l-0.006 0.002c0.348-0.114 0.592-0.406 0.592-0.749 0-0.097-0.020-0.19-0.056-0.277l0.002 0.006c-0.048-0.115-0.119-0.213-0.211-0.293l-0-0 1.203-2.189c0.029 0.003 0.062 0.005 0.095 0.005 0.106 0 0.207-0.016 0.302-0.046l-0.006 0.002c0.109-0.036 0.204-0.087 0.285-0.15l-0.001 0.001c0.464 0.195 0.844 0.353 1.117 0.488 0.411 0.203 0.556 0.337 0.6 0.487 0.044 0.147-0.004 0.429-0.236 0.925-0.173 0.369-0.46 0.893-0.799 1.511-0.006-0-0.013-0-0.020-0-0.113 0-0.222 0.019-0.321 0.053l0.006-0.002c-0.349 0.114-0.593 0.406-0.593 0.749 0 0.097 0.019 0.189 0.055 0.275l-0.002-0.006c0.128 0.31 0.457 0.527 0.843 0.527 0.109 0 0.213-0.017 0.31-0.049l-0.006 0.002c0.348-0.114 0.592-0.406 0.592-0.749 0-0.097-0.019-0.19-0.055-0.275l0.002 0.006c-0.043-0.104-0.105-0.194-0.183-0.27l0.001 0.001c0.335-0.611 0.623-1.136 0.808-1.531 0.251-0.536 0.381-0.935 0.267-1.32s-0.467-0.636-0.933-0.867c-0.307-0.151-0.689-0.311-1.147-0.503 0.001-0.015 0.002-0.033 0.002-0.050 0-0.096-0.019-0.188-0.054-0.274l0.002 0.006c-0.045-0.108-0.11-0.201-0.194-0.279l0 0 0.704-1.284 3.899 1.684c0.704 0.305 0.995 1.053 0.653 1.68l-2.68 4.907c-0.343 0.625-1.184 0.884-1.888 0.58l-5.516-2.384c-0.704-0.304-0.996-1.053-0.653-1.68l2.68-4.905c0.235-0.431 0.707-0.687 1.207-0.707z"></path>
</svg>
