<!-- Generated by IcoMoon.io -->
<svg version="1.1" xmlns="http://www.w3.org/2000/svg" width="32" height="32" viewBox="0 0 28 28">
<title>language</title>
<path d="M20.112 16.826h4.732q0.394-1.84 0.394-2.826t-0.394-2.826h-4.732q0.197 1.38 0.197 2.826t-0.197 2.826zM17.615 24.582q1.643-0.526 3.418-2.005t2.695-2.991h-4.141q-0.657 2.629-1.972 4.995zM17.286 16.826q0.197-1.38 0.197-2.826t-0.197-2.826h-6.573q-0.197 1.38-0.197 2.826t0.197 2.826h6.573zM14 25.173q1.84-2.695 2.695-5.587h-5.39q0.854 2.892 2.695 5.587zM8.413 8.413q0.789-2.826 1.972-4.995-1.643 0.526-3.451 2.005t-2.662 2.991h4.141zM4.272 19.587q0.854 1.512 2.662 2.991t3.451 2.005q-1.315-2.366-1.972-4.995h-4.141zM3.155 16.826h4.732q-0.197-1.38-0.197-2.826t0.197-2.826h-4.732q-0.394 1.84-0.394 2.826t0.394 2.826zM14 2.826q-1.84 2.695-2.695 5.587h5.39q-0.854-2.892-2.695-5.587zM23.727 8.413q-0.92-1.512-2.695-2.991t-3.418-2.005q1.183 2.169 1.972 4.995h4.141zM14 0q5.784 0 9.892 4.108t4.108 9.892-4.108 9.892-9.892 4.108-9.892-4.108-4.108-9.892 4.108-9.892 9.892-4.108z"></path>
</svg>
