<!-- Generated by IcoMoon.io -->
<svg version="1.1" xmlns="http://www.w3.org/2000/svg" width="32" height="32" viewBox="0 0 32 32">
<title>matrix</title>
<path d="M0.843 0.734v30.532h2.197v0.733h-3.040v-31.999h3.040v0.733zM10.234 10.414v1.543h0.044c0.412-0.591 0.911-1.045 1.489-1.365 0.577-0.327 1.248-0.487 2-0.487 0.72 0 1.377 0.143 1.975 0.419 0.597 0.277 1.047 0.776 1.36 1.477 0.339-0.499 0.8-0.941 1.379-1.323 0.579-0.383 1.267-0.573 2.061-0.573 0.604 0 1.163 0.075 1.68 0.223 0.517 0.147 0.955 0.381 1.324 0.707 0.368 0.327 0.652 0.745 0.861 1.268 0.203 0.523 0.307 1.151 0.307 1.889v7.637h-3.132v-6.468c0-0.381-0.013-0.745-0.043-1.083-0.023-0.325-0.109-0.624-0.246-0.893l0.006 0.013c-0.136-0.253-0.335-0.456-0.577-0.593l-0.007-0.004c-0.259-0.147-0.609-0.221-1.047-0.221-0.443 0-0.8 0.085-1.071 0.252-0.267 0.166-0.483 0.39-0.635 0.656l-0.005 0.009c-0.153 0.268-0.261 0.581-0.307 0.915l-0.002 0.013c-0.049 0.313-0.078 0.676-0.080 1.044v6.359h-3.133v-6.4c0-0.339-0.005-0.671-0.024-1.003-0.012-0.333-0.081-0.647-0.197-0.936l0.007 0.019c-0.113-0.281-0.304-0.511-0.548-0.667l-0.006-0.003c-0.259-0.167-0.635-0.253-1.139-0.253-0.148 0-0.345 0.032-0.585 0.099-0.24 0.068-0.48 0.191-0.707 0.376-0.228 0.184-0.425 0.449-0.585 0.793-0.16 0.345-0.24 0.8-0.24 1.36v6.621h-3.132v-11.42zM31.157 31.266v-30.532h-2.197v-0.733h3.040v31.999h-3.040v-0.733z"></path>
</svg>
