<!-- Generated by IcoMoon.io -->
<svg version="1.1" xmlns="http://www.w3.org/2000/svg" width="32" height="32" viewBox="0 0 32 32">
<title>xmpp</title>
<path d="M31.995 4.237c-0.449 0.175-1.12 0.433-1.936 0.745-1.544 0.591-2.328 0.891-2.924 1.093-0.613 0.208-1.287 0.409-2.635 0.813-0.911 0.272-1.672 0.495-2.212 0.651-0.031 0.875 0 2.177-0.292 3.635-0.54 2.703-1.437 4.628-2.016 5.765-1.496 2.944-3.236 4.817-3.88 5.476-0.056-0.059-0.112-0.117-0.168-0.179-0.707-0.763-2.403-2.703-3.815-5.683-1.053-2.223-1.484-4.044-1.605-4.584-0.356-1.589-0.427-2.955-0.427-4.117 0-0.075-0.036-0.129-0.101-0.149-0.721-0.223-1.765-0.519-2.887-0.853-1.271-0.379-2.193-0.744-3.408-1.2-0.493-0.185-1.409-0.547-2.217-0.859-0.749-0.292-1.359-0.555-1.431-0.555-0.005 0-0.015 0-0.023 0.012-0.011 0.015-0.019 0.041-0.019 0.076 0.009 0.593 0.080 1.361 0.256 2.365 0.615 3.503 2.688 7.061 4.36 9.244 0 0 3.717 5.035 9.128 8.144 0.077 0.044 0.179 0.104 0.303 0.176-0.009 0.008-0.020 0.015-0.028 0.021-1.717 1.316-3.201 1.977-3.579 2.14-0.881 0.383-1.653 0.621-2.219 0.772v0.407c1.103-0.136 2.025-0.323 2.72-0.487 0.685-0.163 2.652-0.66 5.067-1.788 0.001-0.001 0.005-0.003 0.008-0.004 0.136 0.067 0.276 0.136 0.42 0.204 1.527 0.725 3.571 1.627 6.073 2.048 0.613 0.103 1.136 0.165 1.507 0.195 0.056 0.004 0.105-0.035 0.115-0.091 0.013-0.079 0.020-0.153 0.004-0.217-0.008-0.033-0.032-0.060-0.063-0.073-0.505-0.209-1.201-0.4-1.983-0.719-0.935-0.381-2.241-1.067-3.648-2.128-0.064-0.048-0.191-0.145-0.367-0.287 4.64-2.656 7.989-6.588 7.989-6.588 1.735-2.036 4.441-5.623 5.431-9.795 0.349-1.473 0.539-2.741 0.5-3.628z"></path>
</svg>
