<!-- Generated by IcoMoon.io -->
<svg version="1.1" xmlns="http://www.w3.org/2000/svg" width="28" height="28" viewBox="0 0 16 28">
<title>code</title>
<path d="M4.5 23c0-0.828-0.672-1.5-1.5-1.5s-1.5 0.672-1.5 1.5 0.672 1.5 1.5 1.5 1.5-0.672 1.5-1.5zM4.5 5c0-0.828-0.672-1.5-1.5-1.5s-1.5 0.672-1.5 1.5 0.672 1.5 1.5 1.5 1.5-0.672 1.5-1.5zM14.5 7c0-0.828-0.672-1.5-1.5-1.5s-1.5 0.672-1.5 1.5 0.672 1.5 1.5 1.5 1.5-0.672 1.5-1.5zM16 7c0 1.109-0.609 2.078-1.5 2.594-0.047 5.641-4.047 6.891-6.703 7.734-2.484 0.781-3.297 1.156-3.297 2.672v0.406c0.891 0.516 1.5 1.484 1.5 2.594 0 1.656-1.344 3-3 3s-3-1.344-3-3c0-1.109 0.609-2.078 1.5-2.594v-12.812c-0.891-0.516-1.5-1.484-1.5-2.594 0-1.656 1.344-3 3-3s3 1.344 3 3c0 1.109-0.609 2.078-1.5 2.594v7.766c0.797-0.391 1.641-0.656 2.406-0.891 2.906-0.922 4.562-1.609 4.594-4.875-0.891-0.516-1.5-1.484-1.5-2.594 0-1.656 1.344-3 3-3s3 1.344 3 3z"></path>
</svg>
