<svg xmlns="http://www.w3.org/2000/svg" width="32" height="32" viewBox="-6.67 -6.67 45.33 45.33"><path d="M25.026 3.335a.466.466 0 00-.646-.238L13.362 8.91a.463.463 0 00-.216.575l.227.593-6.36 3.488a.462.462 0 00-.205.583l.211.508-6.755 3.228a.463.463 0 00-.228.595l1.386 3.341a.463.463 0 00.583.259l7.056-2.5.211.508a.462.462 0 00.557.267l6.733-1.941.202.527a.46.46 0 00.566.277l12.03-3.702a.46.46 0 00.293-.613L25.026 3.335zM2.109 21.061l-1.049-2.53 6.314-3.018 1.332 3.211-6.596 2.337zm7.857-1.708l-.22-.531-1.706-4.113-.22-.53 5.863-3.216 2.197 5.676.347.908-6.261 1.806zm7.505-1.146l-.188-.491c-.003-.01-.001-.022-.006-.032l-.572-1.478-2.549-6.668 10.201-5.381 4.249 10.624-11.136 3.428zm8.943-16.723a.463.463 0 00-.86.344l5.552 13.881a.464.464 0 00.602.258.464.464 0 00.258-.602L26.413 1.484zM16.268 20.627h-2.776c-1.055 0-1.851.796-1.851 1.851v1.217l-5.44 6.347a.462.462 0 10.702.602l5.415-6.316h2.101v6.015a.463.463 0 00.926 0v-6.015h2.101l5.414 6.316a.462.462 0 10.703-.602l-5.44-6.347v-1.148c0-1.076-.813-1.92-1.851-1.92zm.925 2.777h-4.627v-.925c0-.545.38-.925.925-.925h2.776c.527 0 .925.428.925.995v.856z"/></svg>
