<svg xmlns="http://www.w3.org/2000/svg" width="32" height="32" viewBox="-2.29 -2.29 32.57 32.57"><path d="M20.112 16.826h4.732q.394-1.84.394-2.826t-.394-2.826h-4.732q.197 1.38.197 2.826t-.197 2.826zm-2.497 7.756q1.643-.526 3.418-2.005t2.695-2.991h-4.141q-.657 2.629-1.972 4.995zm-.329-7.756q.197-1.38.197-2.826t-.197-2.826h-6.573q-.197 1.38-.197 2.826t.197 2.826h6.573zM14 25.173q1.84-2.695 2.695-5.587h-5.39q.854 2.892 2.695 5.587zM8.413 8.413q.789-2.826 1.972-4.995-1.643.526-3.451 2.005T4.272 8.414h4.141zM4.272 19.587q.854 1.512 2.662 2.991t3.451 2.005q-1.315-2.366-1.972-4.995H4.272zm-1.117-2.761h4.732Q7.69 15.446 7.69 14t.197-2.826H3.155q-.394 1.84-.394 2.826t.394 2.826zM14 2.826q-1.84 2.695-2.695 5.587h5.39Q15.841 5.521 14 2.826zm9.727 5.587q-.92-1.512-2.695-2.991t-3.418-2.005q1.183 2.169 1.972 4.995h4.141zM14 0q5.784 0 9.892 4.108T28 14t-4.108 9.892T14 28t-9.892-4.108T0 14t4.108-9.892T14 0z"/></svg>
