<svg xmlns="http://www.w3.org/2000/svg" width="32" height="32" viewBox="-2.29 -2.29 32.57 32.57"><path d="M24.003 15.695v8.336c0 .608-.504 1.111-1.111 1.111h-6.669v-6.669h-4.446v6.669H5.108a1.119 1.119 0 01-1.111-1.111v-8.336c0-.035.017-.069.017-.104L14 7.359l9.986 8.232a.224.224 0 01.017.104zm3.873-1.198l-1.077 1.285a.578.578 0 01-.365.191h-.052a.547.547 0 01-.365-.122L14 5.831 1.983 15.851a.594.594 0 01-.417.122.578.578 0 01-.365-.191L.124 14.497a.57.57 0 01.069-.781L12.679 3.314c.729-.608 1.91-.608 2.64 0l4.237 3.543V3.471c0-.313.243-.556.556-.556h3.334c.313 0 .556.243.556.556v7.085l3.803 3.161c.226.191.26.556.069.781z"/></svg>