<?xml version="1.0" encoding="UTF-8" standalone="no"?>
<!-- Created with Inkscape (http://www.inkscape.org/) -->

<svg
   width="128.54926mm"
   height="128.54977mm"
   viewBox="0 0 128.54926 128.54977"
   version="1.1"
   id="svg4543"
   xmlns="http://www.w3.org/2000/svg"
   xmlns:svg="http://www.w3.org/2000/svg"
   xmlns:rdf="http://www.w3.org/1999/02/22-rdf-syntax-ns#"
   xmlns:cc="http://creativecommons.org/ns#"
   xmlns:dc="http://purl.org/dc/elements/1.1/">
  <defs
     id="defs4537" />
  <metadata
     id="metadata4540">
    <rdf:RDF>
      <cc:Work
         rdf:about="">
        <dc:format>image/svg+xml</dc:format>
        <dc:type
           rdf:resource="http://purl.org/dc/dcmitype/StillImage" />
      </cc:Work>
    </rdf:RDF>
  </metadata>
  <g
     id="layer1"
     transform="translate(-39.442039,-40.637613)">
    <g
       id="g845">
      <path
         id="path5105"
         d="m 103.71667,40.637611 a 64.274628,64.274887 0 0 0 -64.274627,64.274629 64.274628,64.274887 0 0 0 64.274627,64.27515 64.274628,64.274887 0 0 0 64.27462,-64.27515 64.274628,64.274887 0 0 0 -64.27462,-64.274629 z m 0,2.645833 a 61.628794,61.629054 0 0 1 61.62879,61.628796 61.628794,61.629054 0 0 1 -61.62879,61.62931 61.628794,61.629054 0 0 1 -61.628794,-61.62931 61.628794,61.629054 0 0 1 61.628794,-61.628796 z"
         style="fill:#112b3c;fill-opacity:1;stroke-width:0.298953" />
      <path
         style="fill:#205375;fill-opacity:1;stroke-width:0.292274"
         d="M 103.71668,42.073958 A 62.838549,62.838547 0 0 0 40.878126,104.91276 62.838549,62.838547 0 0 0 103.71668,167.75104 62.838549,62.838547 0 0 0 166.55521,104.91276 62.838549,62.838547 0 0 0 103.71668,42.073958 Z M 64.310256,74.779542 h 78.812824 a 4.3789035,6.0272064 0 1 1 0,12.0535 H 64.310256 a 4.3789035,6.0272064 0 1 1 0,-12.0535 z m 0,24.10648 h 78.812824 a 4.3789035,6.0272064 0 1 1 0,12.053498 H 64.310256 a 4.3789035,6.0272064 0 1 1 0,-12.053498 z M 63.716965,122.9925 h 53.103385 a 3.7934876,6.0272064 0 1 1 0,12.05349 H 63.716965 a 3.7934876,6.0272064 0 1 1 0,-12.05349 z"
         id="ellipse5130" />
    </g>
  </g>
</svg>
